<svg width="193" height="198" viewBox="0 0 193 198" fill="none" xmlns="http://www.w3.org/2000/svg">
<path d="M17.7799 167.071C13.6791 162.596 11.1576 156.473 11.1509 149.675V124.358H0V149.675C0.00639104 169.973 15.1242 186.441 33.7466 186.455H48.9843V174.299H33.7466C27.5055 174.296 21.8934 171.547 17.7799 167.071Z" fill="white" stroke="white" stroke-width="0.001"/>
<path d="M32.3051 90.4858C40.4391 90.4858 47.0211 83.3128 47.0211 74.4445C47.0211 65.5914 40.4394 58.4036 32.3051 58.4036C24.1776 58.4036 17.5854 65.5914 17.5854 74.4445C17.5854 83.3128 24.1776 90.4858 32.3051 90.4858Z" fill="white" stroke="white" stroke-width="0.001"/>
<path d="M67.356 145.137H46.7065V111.641C46.7065 102.97 40.2651 95.9421 32.3049 95.9421C24.3548 95.9421 17.9066 102.969 17.9066 111.641V149.803C17.9066 158.47 24.3514 165.497 32.3049 165.497C33.385 165.497 58.6299 165.417 58.6299 165.417L60.0112 188.642C60.1082 193.399 63.727 197.171 68.0917 197.069C72.4632 196.963 75.9211 193.02 75.8211 188.263L76.6606 155.277C76.6606 149.671 72.4966 145.137 67.356 145.137Z" fill="white" stroke="white" stroke-width="0.001"/>
<path d="M181.332 124.358V149.675C181.326 156.473 178.804 162.596 174.704 167.071C170.59 171.547 164.978 174.296 158.74 174.299H143.499V186.455H158.74C177.359 186.44 192.474 169.973 192.483 149.675V124.358H181.332Z" fill="white" stroke="white" stroke-width="0.001"/>
<path d="M160.178 90.4858C168.305 90.4858 174.897 83.3128 174.897 74.4445C174.897 65.5914 168.305 58.4036 160.178 58.4036C152.044 58.4036 145.462 65.5914 145.462 74.4445C145.462 83.3128 152.044 90.4858 160.178 90.4858Z" fill="white" stroke="white" stroke-width="0.001"/>
<path d="M174.58 149.802V111.641C174.58 102.969 168.125 95.9418 160.178 95.9418C152.218 95.9418 145.777 102.969 145.777 111.641V145.137H125.127C119.987 145.137 115.823 149.671 115.823 155.277L116.662 188.262C116.562 193.019 120.02 196.963 124.392 197.068C128.756 197.171 132.375 193.398 132.472 188.642L133.853 165.417C133.853 165.417 159.098 165.497 160.178 165.497C168.131 165.497 174.58 158.47 174.58 149.802Z" fill="white" stroke="white" stroke-width="0.001"/>
<path d="M137.608 124.511H57.764V139.32H137.608V124.511Z" fill="white" stroke="white" stroke-width="0.001"/>
<path d="M101.039 147.269H91.7479V183.116H101.039V147.269Z" fill="white" stroke="white" stroke-width="0.001"/>
<path d="M135.185 59.1399C135.185 62.125 134.301 64.9318 132.675 67.4543C131.052 69.9801 128.664 72.1888 125.734 73.8292L123.596 75.0247L126.369 81.779C117.959 80.1934 110.155 77.2117 106.213 75.5425L106.135 75.5061L106.051 75.4807C100.765 73.669 96.6347 70.1194 94.5377 65.9204L90.0828 68.5777C92.9305 74.2123 98.0979 78.4916 104.379 80.6859V80.6933C109.257 82.7524 119.512 86.6671 130.285 87.9867L134.688 88.5152L130.136 77.4202C132.808 75.5868 135.102 73.3126 136.825 70.6368C138.984 67.2982 140.263 63.3475 140.258 59.1407C140.263 53.9068 138.279 49.081 135.081 45.3052C131.88 41.5147 127.468 38.6935 122.407 37.1842L121.07 42.5164C125.301 43.7668 128.883 46.114 131.345 49.0445C133.819 51.9886 135.185 55.426 135.185 59.1399Z" fill="white" stroke="white" stroke-width="0.001"/>
<path d="M60.7991 57.8936L54.6983 72.7574L59.1051 72.2252C74.3161 70.3734 88.8832 64.8187 95.7979 61.8992C102.369 59.6065 108.039 55.6955 112.121 50.6112C116.238 45.4941 118.73 39.1335 118.727 32.2555C118.73 27.7579 117.661 23.4642 115.77 19.6114C112.932 13.8273 108.263 9.0232 102.485 5.66287C96.7122 2.29884 89.811 0.359741 82.3993 0.359741C72.5277 0.367116 63.5446 3.79669 56.9321 9.49026C53.6291 12.3368 50.9219 15.7558 49.0256 19.6118C47.1377 23.4646 46.0741 27.7583 46.0741 32.2559C46.0688 37.9929 47.8132 43.3841 50.773 47.9801C53.3136 51.9083 56.7524 55.269 60.7991 57.8936ZM53.5027 22.2175C55.7889 17.5445 59.6923 13.4516 64.7055 10.5321C69.7123 7.6163 75.8094 5.88123 82.4 5.88861C91.1866 5.88123 99.0961 8.96462 104.725 13.8195C107.536 16.247 109.774 19.1009 111.299 22.2175C112.827 25.3374 113.655 28.7088 113.655 32.2551C113.65 37.6606 111.732 42.7012 108.307 46.9731C104.887 51.2376 99.9592 54.6856 94.1163 56.6866L94.0426 56.7124L93.9644 56.7485C87.976 59.2783 75.8669 63.8923 62.9987 66.0723L67.3615 55.4473L65.2194 54.2518C60.8968 51.8386 57.3581 48.5693 54.9264 44.7931C52.4918 41.0132 51.1471 36.7745 51.1422 32.2547C51.1463 28.7088 51.9697 25.3378 53.5027 22.2175Z" fill="white" stroke="white" stroke-width="0.001"/>
<path d="M92.01 41.5983L88.5216 31.845C88.2766 31.2033 87.7283 30.8067 87.0983 30.8067C86.4683 30.8067 85.9316 31.2033 85.6633 31.8683L82.1866 41.5983C82.0233 42.0533 82.2566 42.555 82.7116 42.7183C83.1666 42.8817 83.6683 42.6483 83.8316 42.1933L84.555 40.175H89.63L90.3533 42.1933C90.4816 42.555 90.82 42.7767 91.1816 42.7767C91.275 42.7767 91.38 42.765 91.4733 42.73C91.9283 42.5667 92.1616 42.065 91.9983 41.61L92.01 41.5983ZM85.1966 38.4133L87.11 33.0583L89.0233 38.4133H85.1966ZM82.2216 28.1583C79.585 32.3233 77.205 34.8433 74.3116 36.5233C74.1716 36.605 74.02 36.64 73.88 36.64C73.5766 36.64 73.285 36.4883 73.1216 36.2083C72.8766 35.7883 73.0166 35.2517 73.4366 35.0183C75.8866 33.595 77.8933 31.5533 80.145 28.17H72.8066C72.3283 28.17 71.9316 27.7733 71.9316 27.295C71.9316 26.8167 72.3283 26.42 72.8066 26.42H77.1816V24.11C77.1816 23.6317 77.5783 23.235 78.0566 23.235C78.535 23.235 78.9316 23.6317 78.9316 24.11V26.42H83.3066C83.785 26.42 84.1816 26.8167 84.1816 27.295C84.1816 27.7733 83.785 28.17 83.3066 28.17H82.21L82.2216 28.1583ZM82.2683 36.64C82.1166 36.64 81.965 36.605 81.825 36.5233C81.0666 36.08 80.3316 35.59 79.6433 35.0767C79.2583 34.785 79.1766 34.2367 79.4683 33.8517C79.76 33.4667 80.3083 33.385 80.6933 33.6767C81.3233 34.155 82.0116 34.5983 82.7116 35.0067C83.1316 35.2517 83.2716 35.7883 83.0266 36.2083C82.8633 36.4883 82.5716 36.64 82.2683 36.64Z" fill="white"/>
</svg>
